<svg version="1.1" xmlns="http://www.w3.org/2000/svg" xmlns:xlink="http://www.w3.org/1999/xlink" width="179.998" height="44.285" viewBox="0,0,179.998,44.285"><g transform="translate(-165.002,-152.5)"><g data-paper-data="{&quot;isPaintingLayer&quot;:true}" fill="#957d98" fill-rule="evenodd" stroke="none" stroke-width="1" stroke-linecap="butt" stroke-linejoin="miter" stroke-miterlimit="10" stroke-dasharray="" stroke-dashoffset="0" style="mix-blend-mode: normal"><path d="M257,174.5v-22h4.384h4.383l0.693,6.471c0.381,3.559 0.381,7.497 -0.001,8.75c-0.535,1.755 0.08,1.396 2.673,-1.56c2.942,-3.353 3.937,-3.846 7.868,-3.9c10.683,-0.148 12,2.122 12,20.689v13.55h-4.5h-4.5v-9.943c0,-9.142 -0.179,-10.069 -2.223,-11.5c-2.73,-1.913 -6.78,-2.007 -9.23,-0.215c-1.508,1.102 -1.924,3.161 -2.325,11.5l-0.489,10.158h-4.367h-4.366v-22M205.637,164.319c5.497,-6.732 5.883,-7.013 6.179,-4.5c0.29,2.457 0.687,2.681 4.75,2.681h4.434v6v6h-4.555h-4.555l0.305,4.75l0.305,4.75l4.25,0.307l4.25,0.308v6.085v6.085l-6.181,-0.646c-3.4,-0.355 -7.245,-1.343 -8.545,-2.195c-5.013,-3.285 -5.312,-10.869 -0.645,-16.415l2.549,-3.029h-4.589c-4.432,0 -4.589,0.103 -4.589,3v3h-12.5c-7.667,0 -12.5,0.387 -12.5,1c0,0.55 0.9,1.9 2,3c3.609,3.609 14,2.071 14,-2.071c0,-0.511 2.084,-0.929 4.632,-0.929h4.631l-0.547,4.078c-0.999,7.448 -6.417,10.922 -17.036,10.922c-11.086,0 -16.675,-5.87 -16.678,-17.516c-0.003,-11.529 5.27,-16.778 16.857,-16.778c7.784,0 12.5,2.002 14.978,6.358c0.915,1.608 1.949,2.926 2.3,2.93c0.35,0.003 3.275,-3.225 6.5,-7.175M233.836,162.459c4.56,-0.869 10.785,-0.124 14.458,1.729c3.435,1.732 6.697,6.873 6.702,10.562c0.004,2.558 -0.285,2.75 -4.136,2.75c-2.642,0 -4.563,-0.579 -5.311,-1.602c-0.648,-0.886 -3.212,-1.831 -5.743,-2.116c-3.75,-0.423 -4.953,-0.135 -6.689,1.601c-2.438,2.438 -2.693,4.947 -0.77,7.576c1.844,2.523 9.705,2.708 12.376,0.291c1.192,-1.078 3.537,-1.75 6.106,-1.75c3.884,0 4.171,0.189 4.167,2.75c-0.005,3.752 -3.279,8.828 -6.902,10.701c-1.789,0.925 -5.573,1.549 -9.396,1.549c-11.04,0 -16.693,-5.875 -16.696,-17.349c-0.003,-9.822 3.779,-15.157 11.834,-16.692M303.079,162.587c2.431,-0.477 4.472,-0.917 4.535,-0.977c0.062,-0.061 2.519,0.346 5.459,0.904c8.122,1.54 12.901,7.36 12.921,15.736c0.006,2.214 -0.196,2.25 -12.494,2.25c-13.074,0 -14.221,0.441 -10.845,4.171c2.598,2.871 9.827,2.491 12.757,-0.671c1.752,-1.89 3.326,-2.5 6.453,-2.5c3.543,0 4.135,0.303 4.135,2.114c0,1.162 -0.971,3.842 -2.159,5.955c-2.702,4.808 -7.643,6.932 -16.111,6.927c-10.22,-0.006 -15.173,-4.478 -16.391,-14.8c-1.179,-9.983 3.426,-17.478 11.74,-19.109M328,179.5v-17h2.429c2.159,0 2.555,0.639 3.563,5.75c1.504,7.622 1.835,8.386 1.929,4.45c0.095,-3.965 2.391,-8.722 4.624,-9.579c4.019,-1.542 4.455,-0.88 4.455,6.771c0,7.226 -0.062,7.407 -2.744,8.08c-4.736,1.189 -5.256,2.242 -5.256,10.65v7.878h-4.5h-4.5v-17M177.378,172.484c3.485,-1.408 9.269,-1.114 10.642,0.54c0.696,0.838 1.088,1.677 0.873,1.865c-0.985,0.853 -14.075,4.763 -14.506,4.332c-1.113,-1.114 1.032,-5.946 2.991,-6.737M303.223,173.057c2.779,-1.947 8.769,-2.016 11.336,-0.132c1.866,1.37 1.825,1.471 -1.059,2.602c-5.85,2.294 -10.763,3.973 -11.626,3.973c-1.83,0 -0.796,-4.941 1.349,-6.443"/></g></g></svg>