<svg version="1.1" xmlns="http://www.w3.org/2000/svg" xmlns:xlink="http://www.w3.org/1999/xlink" width="339.52548" height="352.96425" viewBox="0,0,339.52548,352.96425"><g transform="translate(-60.88236,-4.93985)"><g data-paper-data="{&quot;isPaintingLayer&quot;:true}" fill="#000000" fill-rule="nonzero" stroke="none" stroke-width="1" stroke-linecap="butt" stroke-linejoin="miter" stroke-miterlimit="10" stroke-dasharray="" stroke-dashoffset="0" style="mix-blend-mode: normal"><path d="M282.91153,9.54341c20.14868,3.96181 44.25921,13.24383 56.59745,21.73344c16.41326,11.3195 29.99664,26.37439 38.37307,42.67445c14.60214,28.18555 20.48828,54.10716 21.84662,96.44207l0.67917,22.41258h-123.72202c-73.35028,0 -123.38242,-0.45278 -122.81646,-1.01874c1.24513,-1.13195 16.75283,-6.7917 78.67044,-28.41194c73.68988,-25.80844 78.10451,-27.50635 78.10451,-28.41191c0,-3.84863 -5.54657,-14.37575 -10.18755,-19.58272c-13.80979,-15.05492 -39.05224,-22.07301 -75.04823,-20.71467c-18.67716,0.67917 -26.26118,2.15072 -38.03347,7.69726c-26.714,12.33824 -39.73144,37.80711 -39.73144,77.31213c0.11318,44.59878 17.31882,70.18082 53.76759,80.14199c7.69726,2.03751 12.11185,2.37708 29.99664,2.37708c22.52579,0 30.22306,-1.13195 44.59881,-6.4521c19.24312,-7.24448 34.41126,-23.20496 36.44877,-38.48628l0.79235,-5.20694l43.12726,0.22639l43.12726,0.33957l-0.33957,10.18755c-0.90556,27.16678 -8.82921,53.76756 -22.41262,74.93501c-9.73477,15.28131 -29.43065,31.92097 -48.56059,41.08975c-26.37443,12.56463 -50.48492,17.7716 -87.83925,18.90355c-78.67047,2.37708 -129.83456,-19.6959 -156.43537,-67.57735c-8.26322,-14.94171 -16.75283,-41.65574 -19.92229,-62.93637c-2.15069,-14.37575 -3.62224,-44.82517 -2.94307,-59.88009c2.37708,-47.88145 12.9042,-83.08506 32.93971,-109.91226c21.50702,-28.6383 58.29539,-46.52311 105.72406,-51.2773c25.01609,-2.49029 60.55926,-1.01874 83.19824,3.39585z"/></g></g></svg>