<svg version="1.1" xmlns="http://www.w3.org/2000/svg" xmlns:xlink="http://www.w3.org/1999/xlink" width="55.10782" height="57.28905" viewBox="0,0,55.10782,57.28905"><g transform="translate(-219.19218,-70.56394)"><g data-paper-data="{&quot;isPaintingLayer&quot;:true}" fill="#000000" fill-rule="nonzero" stroke="none" stroke-width="1" stroke-linecap="butt" stroke-linejoin="miter" stroke-miterlimit="10" stroke-dasharray="" stroke-dashoffset="0" style="mix-blend-mode: normal"><path d="M255.22937,71.31113c3.2703,0.64304 7.18364,2.14958 9.18624,3.52752c2.66401,1.83725 4.86871,4.28079 6.22827,6.92642c2.37005,4.57475 3.32542,8.78205 3.54589,15.65335l0.11023,3.63775h-20.08112c-11.90537,0 -20.026,-0.07349 -19.93414,-0.16535c0.2021,-0.18372 2.71913,-1.10235 12.76887,-4.61149c11.96048,-4.18893 12.67701,-4.46451 12.67701,-4.61149c0,-0.62466 -0.90025,-2.3333 -1.65352,-3.17844c-2.24144,-2.44354 -6.33851,-3.58263 -12.18095,-3.36216c-3.03146,0.11023 -4.26242,0.34908 -6.17315,1.24933c-4.33591,2.0026 -6.44874,6.13641 -6.44874,12.5484c0.01837,7.23876 2.81099,11.39094 8.72693,13.00772c1.24933,0.3307 1.96586,0.38582 4.86871,0.38582c3.65612,0 4.90545,-0.18372 7.23876,-1.04723c3.12332,-1.17584 5.58523,-3.76636 5.91594,-6.24664l0.12861,-0.84513l6.99991,0.03674l6.99991,0.05512l-0.05512,1.65352c-0.14698,4.4094 -1.43305,8.72693 -3.63775,12.16258c-1.58003,2.48028 -4.77684,5.18104 -7.88179,6.66921c-4.28079,2.03935 -8.19413,2.88448 -14.25704,3.0682c-12.76887,0.38582 -21.07323,-3.19681 -25.39077,-10.96837c-1.34119,-2.42517 -2.71913,-6.76107 -3.23356,-10.2151c-0.34908,-2.3333 -0.58792,-7.2755 -0.47768,-9.71904c0.38582,-7.77156 2.09446,-13.4854 5.34639,-17.83968c3.49077,-4.64824 9.46183,-7.55109 17.1599,-8.32273c4.06032,-0.40419 9.82928,-0.16535 13.50377,0.55117z"/></g></g></svg>