<svg version="1.1" xmlns="http://www.w3.org/2000/svg" xmlns:xlink="http://www.w3.org/1999/xlink" width="221.97228" height="334.30797" viewBox="0,0,221.97228,334.30797"><g transform="translate(-104.98984,-26.35953)"><g data-paper-data="{&quot;isPaintingLayer&quot;:true}" fill="#9a0000" fill-rule="evenodd" stroke="none" stroke-width="1" stroke-linecap="butt" stroke-linejoin="miter" stroke-miterlimit="10" stroke-dasharray="" stroke-dashoffset="0" style="mix-blend-mode: normal"><path d="M110.44099,26.96521c1.31156,-1.31156 2.23713,-0.44034 2.23713,2.10322c0,3.55893 1.48171,6.7949 3.94728,8.61769c1.26666,0.9366 6.24822,7.56608 11.07065,14.73199c5.80709,8.6295 11.38102,15.7773 16.50437,21.16453c4.25528,4.47426 8.6232,9.88592 9.70789,12.02537c2.18987,4.32223 3.14774,5.29822 6.03317,6.15054c1.08312,0.31982 3.74168,1.92204 5.90792,3.56129c2.16624,1.63925 6.41285,4.09379 9.43692,5.45498c6.32778,2.84919 8.60902,4.74839 10.77211,8.96743c1.26981,2.47581 1.74717,2.84447 2.68062,2.07014c0.86413,-0.71683 1.39978,-0.72392 2.23792,-0.02836c1.61798,1.34307 5.87877,-11.95212 4.40101,-13.73237c-0.91297,-1.09966 -0.89013,-3.0028 0.16306,-13.71898c0.20481,-2.08983 6.25137,-8.54443 9.3676,-10.00014c1.0461,-0.48918 3.85196,-1.24539 6.23482,-1.68021c4.01423,-0.73258 4.65071,-0.6286 8.66495,1.4242c4.75391,2.43012 8.66495,5.75116 8.66495,7.35733c0,0.56558 0.52541,2.08195 1.1674,3.36909c0.85232,1.70778 0.9689,2.9642 0.4301,4.64993c-0.40489,1.2706 -1.27217,4.70743 -1.92598,7.63776c-1.17765,5.27459 -6.15369,14.98406 -8.80831,17.18732c-0.73888,0.61285 -2.44115,1.46989 -3.78343,1.90393c-1.66367,0.53723 -2.52386,1.37694 -2.70189,2.63572c-0.35132,2.48054 1.12329,5.8449 3.10284,7.08163c2.12685,1.3281 11.37078,2.50338 23.54739,2.99413c7.82366,0.31509 10.49404,0.72786 12.999,2.00948c3.01146,1.54 3.29268,1.55418 6.27185,0.30879c5.74486,-2.40019 11.12343,-2.40019 18.14598,0c6.00875,2.05359 7.16434,2.17018 24.86525,2.49551l18.56426,0.34108l2.42461,-2.0402c1.33361,-1.1225 2.81611,-2.0402 3.29504,-2.0402c1.72039,0 0.82396,3.31868 -1.53212,5.67554l-2.40334,2.40334l1.61562,1.50534c1.34307,1.25169 1.61326,2.46321 1.6038,7.18561c-0.01418,6.56567 -0.76724,8.50347 -2.68535,6.91148c-0.68296,-0.56637 -1.24145,-1.86139 -1.24145,-2.87676v-1.84642l-2.73812,1.61562c-4.10876,2.42461 -9.88119,0.80426 -7.47391,-2.09692c0.52384,-0.63097 1.95119,-1.14692 3.17216,-1.14692c1.22176,0 2.45061,-0.37181 2.73182,-0.82711c0.34896,-0.56558 -1.31786,-0.66956 -5.27065,-0.32927c-4.32932,0.37181 -6.65626,0.18118 -9.26362,-0.76094c-3.3045,-1.19419 -4.0615,-1.15559 -14.81785,0.75464c-8.82328,1.56678 -13.63863,1.98585 -21.72539,1.88738c-9.29828,-0.11264 -10.96825,0.08271 -15.90333,1.85509c-3.03273,1.09021 -8.70434,2.72552 -12.60356,3.63534c-3.89923,0.90982 -7.92685,2.27809 -8.95089,3.0414c-1.02404,0.76252 -2.74758,3.68891 -3.83148,6.50265c-5.21472,13.54332 -5.68736,15.46063 -6.51919,26.4147c-0.45452,5.98748 -1.0327,11.70871 -1.28478,12.71384c-0.86098,3.42974 0.3978,5.55581 5.41953,9.1557c2.70977,1.94252 8.29393,6.77757 12.40978,10.74611c4.11585,3.96776 10.76896,10.24276 14.78398,13.94505c4.01581,3.7023 8.95956,9.09032 10.98637,11.9726c2.0276,2.88306 4.6775,6.4034 5.88901,7.82366c5.60386,6.56724 6.80514,12.01356 4.91696,22.28861c-1.065,5.79528 -1.20049,8.80044 -0.65302,14.46022c0.38047,3.92916 0.70816,12.81625 0.72786,19.74821c0.05908,20.62179 0.79481,23.0078 8.29314,26.90309c9.59761,4.9855 13.15576,6.57433 14.72569,6.57433c2.36002,0.00079 4.92327,2.67353 4.92327,5.1328c0,5.94337 -17.27476,8.49795 -31.11505,4.60109c-2.59948,-0.73258 -6.85319,-1.26114 -9.45267,-1.17528c-2.59948,0.08586 -6.30808,-0.30958 -8.24194,-0.8791c-3.95594,-1.16504 -4.54752,-2.29857 -4.67671,-8.96113c-0.04884,-2.5152 -0.51675,-4.40179 -1.23988,-5.00204c-0.63806,-0.53014 -1.33755,-2.07959 -1.55339,-3.44392c-0.21584,-1.36512 -0.96023,-5.84884 -1.65422,-9.96469c-0.73731,-4.37344 -1.4439,-14.68473 -1.69912,-24.81326c-0.37023,-14.65716 -0.24656,-17.78284 0.79796,-20.26495l1.23436,-2.93427l-2.51126,-1.74402c-1.38167,-0.95945 -4.70113,-3.76689 -7.37781,-6.24034c-2.67589,-2.47266 -7.28407,-6.18362 -10.24039,-8.24667c-2.95554,-2.06305 -9.27386,-6.65153 -14.03958,-10.19707c-4.76572,-3.54554 -10.05134,-7.27619 -11.74573,-8.28921l-3.08078,-1.8417l0.47894,2.39468c1.15008,5.75353 1.54157,32.46048 0.60891,41.60909c-1.35803,13.32197 -2.32063,15.13058 -12.02774,22.58165c-1.60538,1.232 -4.79487,5.62985 -7.71338,10.63426c-2.73734,4.69325 -6.99892,10.66025 -9.47158,13.25974c-2.47187,2.59948 -4.90279,5.5117 -5.40063,6.47114c-0.54195,1.04294 -2.24737,2.12764 -4.2411,2.69795c-1.83461,0.52462 -3.74326,1.26036 -4.24267,1.63531c-0.52541,0.39544 -1.02325,3.64085 -1.18158,7.71259c-0.1922,4.92169 -0.6286,7.37387 -1.45571,8.17892c-0.75306,0.73337 -3.7535,1.34543 -8.27424,1.68967c-6.40891,0.48681 -7.28171,0.38598 -9.05881,-1.05397c-1.7834,-1.44468 -1.96143,-2.12921 -1.91653,-7.3723c0.05278,-6.04971 0.81135,-8.19783 5.1202,-14.49804c1.51715,-2.21901 1.97167,-3.55027 1.47619,-4.33247c-1.52109,-2.40492 -0.63333,-6.54519 3.10126,-14.46259c5.6527,-11.98441 15.70877,-26.90624 21.56312,-31.99651l2.30645,-2.00554l-1.23436,-10.20416c-1.38403,-11.43931 -4.06229,-54.0551 -3.86772,-61.53138c0.08271,-3.16665 0.98544,-7.2691 2.60106,-11.81584c3.15325,-8.87606 4.70901,-20.82896 4.71846,-36.25021c0.00788,-13.81744 -0.91218,-21.7309 -3.55657,-30.58097c-1.03586,-3.46598 -2.11976,-8.25139 -2.40886,-10.63426c-0.58449,-4.82401 -2.16072,-7.90401 -5.84411,-11.42198c-1.36118,-1.29974 -3.53609,-4.35296 -4.83425,-6.78544c-1.29738,-2.4317 -4.46875,-6.79805 -7.04697,-9.70238c-5.46207,-6.1529 -7.44871,-9.81345 -11.2408,-20.70844c-4.85946,-13.96002 -6.67989,-16.77298 -12.46729,-19.26218c-2.06068,-0.88698 -4.15524,-2.10479 -4.65544,-2.7074c-0.5002,-0.60182 -1.7519,-1.09493 -2.78145,-1.09493c-2.31433,0 -2.4892,-1.96537 -0.29776,-3.33364c1.60223,-1.0012 1.963,-2.61681 1.091,-4.89018c-0.40883,-1.06579 -0.77906,-0.94527 -2.36711,0.76803c-3.94728,4.25922 -4.47742,-1.14614 -0.67587,-6.89021c1.32101,-1.99688 1.95198,-4.04968 1.95198,-6.35456c0,-1.87163 0.41119,-3.81494 0.91376,-4.31751"/></g></g></svg>